<?xml version="1.0" encoding="UTF-8" standalone="no"?>
<!DOCTYPE svg PUBLIC "-//W3C//DTD SVG 1.1//EN" "http://www.w3.org/Graphics/SVG/1.1/DTD/svg11.dtd">
<svg xmlns="http://www.w3.org/2000/svg" version="1.1" viewBox="0.00 0.00 41.00 52.00">
<path fill="#ffffff" d="
  M 0.00 23.59
  L 0.00 23.10
  C 4.19 -0.21 35.90 -0.06 38.65 23.42
  Q 38.70 23.89 38.23 23.89
  L 29.47 23.89
  Q 28.90 23.89 28.57 24.36
  L 27.16 26.33
  Q 26.97 26.60 26.90 26.28
  L 23.86 12.55
  A 1.77 1.77 0.0 0 0 20.67 11.93
  Q 19.81 13.19 19.52 15.25
  Q 18.23 24.49 17.11 33.82
  Q 17.07 34.14 16.75 34.13
  L 16.44 34.12
  Q 16.18 34.11 16.19 33.85
  Q 16.25 31.79 15.76 29.88
  C 14.91 26.49 14.69 23.49 13.82 20.32
  Q 13.52 19.26 12.88 18.97
  Q 12.20 18.67 11.43 19.00
  Q 10.97 19.20 10.76 19.65
  L 9.14 23.20
  Q 8.93 23.67 8.42 23.67
  L 0.00 23.59
  Z"
/>
<path fill="#ffffff" d="
  M 0.00 27.02
  L 0.00 26.00
  L 9.56 25.99
  Q 10.11 25.99 10.42 25.53
  L 11.70 23.67
  Q 12.07 23.12 12.15 23.77
  Q 13.05 30.54 15.01 36.97
  Q 15.88 39.83 18.25 38.32
  Q 18.50 38.16 18.80 36.46
  Q 20.58 26.22 21.83 15.88
  Q 21.83 15.86 21.85 15.85
  L 22.14 15.83
  Q 22.28 15.82 22.31 15.97
  L 25.03 30.04
  A 1.49 1.49 0.0 0 0 25.64 30.99
  Q 27.94 32.56 29.65 26.64
  A 0.38 0.37 -81.7 0 1 30.01 26.37
  L 38.44 26.35
  A 0.27 0.27 0.0 0 1 38.71 26.66
  C 35.24 50.12 3.97 50.35 0.00 27.02
  Z"
/>
</svg>
